<svg xmlns="http://www.w3.org/2000/svg" width="1200" height="680" viewBox="0 0 1200 680">
<style>
  .bg { fill: #080b13; }
  .grid { stroke: #203245; stroke-width: 1; opacity: 0.7; }
  .title { fill: #edf5ff; font: 700 26px sans-serif; }
  .sub { fill: #f1b65f; font: 16px sans-serif; }
  .label { fill: #dcecff; font: 12px sans-serif; }
</style>
<rect class="bg" x="0" y="0" width="1200" height="680" />
<text class="title" x="36" y="42">LOGH VII Unity Strategic Map Prototype</text>
<text class="sub" x="36" y="66">positions are suspect until cross-check promotion; EXE is oracle-only</text>
<line class="grid" x1="70" y1="80" x2="70" y2="600" />
<line class="grid" x1="174" y1="80" x2="174" y2="600" />
<line class="grid" x1="278" y1="80" x2="278" y2="600" />
<line class="grid" x1="382" y1="80" x2="382" y2="600" />
<line class="grid" x1="486" y1="80" x2="486" y2="600" />
<line class="grid" x1="590" y1="80" x2="590" y2="600" />
<line class="grid" x1="694" y1="80" x2="694" y2="600" />
<line class="grid" x1="798" y1="80" x2="798" y2="600" />
<line class="grid" x1="902" y1="80" x2="902" y2="600" />
<line class="grid" x1="1006" y1="80" x2="1006" y2="600" />
<line class="grid" x1="1110" y1="80" x2="1110" y2="600" />
<line class="grid" x1="70" y1="80" x2="1110" y2="80" />
<line class="grid" x1="70" y1="184" x2="1110" y2="184" />
<line class="grid" x1="70" y1="288" x2="1110" y2="288" />
<line class="grid" x1="70" y1="392" x2="1110" y2="392" />
<line class="grid" x1="70" y1="496" x2="1110" y2="496" />
<line class="grid" x1="70" y1="600" x2="1110" y2="600" />
<circle cx="132.4" cy="298.4" r="4.8" fill="#52a8ff" /><text x="141.4" y="291.4" class="label">ルンビーニ</text>
<circle cx="142.8" cy="236.0" r="4.8" fill="#52a8ff" /><text x="151.8" y="229" class="label">シロン</text>
<circle cx="153.2" cy="444.0" r="4.8" fill="#52a8ff" /><text x="162.2" y="437" class="label">エリューセラ</text>
<circle cx="174.0" cy="371.2" r="4.8" fill="#52a8ff" /><text x="183" y="364.20000000000005" class="label">タナトス</text>
<circle cx="194.8" cy="433.6" r="4.8" fill="#52a8ff" /><text x="203.8" y="426.6" class="label">リオ・ヴェルデ</text>
<circle cx="215.6" cy="204.8" r="4.8" fill="#52a8ff" /><text x="224.60000000000002" y="197.8" class="label">ロフォーテン</text>
<circle cx="226.0" cy="298.4" r="4.8" fill="#52a8ff" /><text x="235" y="291.4" class="label">バーラト</text>
<circle cx="267.6" cy="163.2" r="4.8" fill="#52a8ff" /><text x="276.6" y="156.2" class="label">ファラーファラ</text>
<circle cx="267.6" cy="236.0" r="4.8" fill="#52a8ff" /><text x="276.6" y="229" class="label">ケリム</text>
<circle cx="267.6" cy="568.8" r="4.8" fill="#52a8ff" /><text x="276.6" y="561.8" class="label">ポリスーン</text>
<circle cx="298.8" cy="454.4" r="4.8" fill="#52a8ff" /><text x="307.8" y="447.4" class="label">ライガール</text>
<circle cx="309.2" cy="381.6" r="4.8" fill="#52a8ff" /><text x="318.20000000000005" y="374.59999999999997" class="label">バーミリオン</text>
<circle cx="330.0" cy="340.0" r="4.8" fill="#52a8ff" /><text x="339" y="333" class="label">リューカス</text>
<circle cx="330.0" cy="111.2" r="4.8" fill="#52a8ff" /><text x="339" y="104.2" class="label">マローヴィア</text>
<circle cx="340.4" cy="152.8" r="4.8" fill="#52a8ff" /><text x="349.40000000000003" y="145.8" class="label">ハダト</text>
<circle cx="340.4" cy="256.8" r="4.8" fill="#52a8ff" /><text x="349.40000000000003" y="249.8" class="label">ジャムシード</text>
<circle cx="350.8" cy="496.0" r="4.8" fill="#52a8ff" /><text x="359.8" y="489" class="label">トリプラ</text>
<circle cx="361.2" cy="402.4" r="4.8" fill="#52a8ff" /><text x="370.20000000000005" y="395.4" class="label">タッシリ</text>
<circle cx="361.2" cy="568.8" r="4.8" fill="#52a8ff" /><text x="370.20000000000005" y="561.8" class="label">シュパーラ</text>
<circle cx="392.4" cy="215.2" r="4.8" fill="#52a8ff" /><text x="401.4" y="208.20000000000002" class="label">ドーリア</text>
<circle cx="402.8" cy="132.0" r="4.8" fill="#52a8ff" /><text x="411.8" y="125" class="label">シヴァ</text>
<circle cx="413.2" cy="267.2" r="4.8" fill="#52a8ff" /><text x="422.2" y="260.2" class="label">エル・ファシル</text>
<circle cx="423.6" cy="444.0" r="4.8" fill="#52a8ff" /><text x="432.6" y="437" class="label">ガンダルヴァ</text>
<circle cx="434.0" cy="350.4" r="4.8" fill="#52a8ff" /><text x="443" y="343.40000000000003" class="label">ランテマリオ</text>
<circle cx="434.0" cy="558.4" r="4.8" fill="#52a8ff" /><text x="443" y="551.4000000000001" class="label">メルカルト</text>
<circle cx="444.4" cy="173.6" r="4.8" fill="#52a8ff" /><text x="453.4" y="166.6" class="label">エルゴン</text>
<circle cx="475.6" cy="392.0" r="4.8" fill="#52a8ff" /><text x="484.6" y="385" class="label">マル・アデッタ</text>
<circle cx="486.0" cy="516.8" r="4.8" fill="#52a8ff" /><text x="495" y="509.79999999999995" class="label">バラトループ</text>
<circle cx="486.0" cy="433.6" r="4.8" fill="#52a8ff" /><text x="495" y="426.6" class="label">シャンダルーア</text>
<circle cx="496.4" cy="152.8" r="4.8" fill="#52a8ff" /><text x="505.4" y="145.8" class="label">ダゴン</text>
<circle cx="496.4" cy="246.4" r="4.8" fill="#52a8ff" /><text x="505.4" y="239.4" class="label">ティアマト</text>
<circle cx="506.8" cy="288.0" r="4.8" fill="#52a8ff" /><text x="515.8" y="281" class="label">ドラゴニア</text>
<circle cx="506.8" cy="350.4" r="4.8" fill="#52a8ff" /><text x="515.8" y="343.40000000000003" class="label">フォルセティ</text>
<circle cx="527.6" cy="204.8" r="4.8" fill="#52a8ff" /><text x="536.6" y="197.8" class="label">アスターテ</text>
<circle cx="527.6" cy="392.0" r="4.8" fill="#52a8ff" /><text x="536.6" y="385" class="label">ファイアザード</text>
<circle cx="538.0" cy="485.6" r="4.8" fill="#52a8ff" /><text x="547" y="478.6" class="label">ポレヴィト</text>
<circle cx="538.0" cy="288.0" r="4.8" fill="#52a8ff" /><text x="547" y="281" class="label">アルレスハイム</text>
<circle cx="538.0" cy="350.4" r="4.8" fill="#52a8ff" /><text x="547" y="343.40000000000003" class="label">パランティア</text>
<circle cx="558.8" cy="236.0" r="4.8" fill="#52a8ff" /><text x="567.8" y="229" class="label">アルトミュール</text>
<circle cx="558.8" cy="215.2" r="4.8" fill="#52a8ff" /><text x="567.8" y="208.20000000000002" class="label">ヴァンフリート</text>
<circle cx="610.8" cy="475.2" r="4.8" fill="#d8d6c3" /><text x="619.8000000000001" y="468.2" class="label">フェザーン</text>
<circle cx="631.6" cy="215.2" r="4.8" fill="#e85f47" /><text x="640.6" y="208.20000000000002" class="label">イゼルローン</text>
<circle cx="673.2" cy="485.6" r="4.8" fill="#e85f47" /><text x="682.1999999999999" y="478.6" class="label">アイゼンヘルツ</text>
<circle cx="714.8" cy="215.2" r="4.8" fill="#e85f47" /><text x="723.8" y="208.20000000000002" class="label">アムリッツァ</text>
<circle cx="714.8" cy="579.2" r="4.8" fill="#e85f47" /><text x="723.8" y="572.2" class="label">フォルゲン</text>
<circle cx="735.6" cy="506.4" r="4.8" fill="#e85f47" /><text x="744.6" y="499.4" class="label">ヨーツンヘイム</text>
<circle cx="735.6" cy="277.6" r="4.8" fill="#e85f47" /><text x="744.6" y="270.6" class="label">ヴァンステイド</text>
<circle cx="746.0" cy="142.4" r="4.8" fill="#e85f47" /><text x="755" y="135.4" class="label">ビルロスト</text>
<circle cx="746.0" cy="433.6" r="4.8" fill="#e85f47" /><text x="755" y="426.6" class="label">アルメントフベール</text>
<circle cx="746.0" cy="360.8" r="4.8" fill="#e85f47" /><text x="755" y="353.8" class="label">トラーバッハ</text>
<circle cx="777.2" cy="548.0" r="4.8" fill="#e85f47" /><text x="786.2" y="541" class="label">ブラウンシュヴァイク</text>
<circle cx="787.6" cy="163.2" r="4.8" fill="#e85f47" /><text x="796.5999999999999" y="156.2" class="label">ボルソルン</text>
<circle cx="787.6" cy="215.2" r="4.8" fill="#e85f47" /><text x="796.5999999999999" y="208.20000000000002" class="label">ドヴェルグ</text>
<circle cx="808.4" cy="308.8" r="4.8" fill="#e85f47" /><text x="817.4" y="301.8" class="label">アルタイル</text>
<circle cx="808.4" cy="444.0" r="4.8" fill="#e85f47" /><text x="817.4" y="437" class="label">フレイア</text>
<circle cx="818.8" cy="246.4" r="4.8" fill="#e85f47" /><text x="827.8" y="239.4" class="label">ヤヴァンハール</text>
<circle cx="839.6" cy="558.4" r="4.8" fill="#e85f47" /><text x="848.6" y="551.4000000000001" class="label">キフォイザー</text>
<circle cx="870.8" cy="381.6" r="4.8" fill="#e85f47" /><text x="879.8000000000001" y="374.59999999999997" class="label">アルヴィース</text>
<circle cx="870.8" cy="121.6" r="4.8" fill="#e85f47" /><text x="879.8000000000001" y="114.6" class="label">太陽系</text>
<circle cx="881.2" cy="579.2" r="4.8" fill="#e85f47" /><text x="890.2" y="572.2" class="label">バルドル</text>
<circle cx="891.6" cy="204.8" r="4.8" fill="#e85f47" /><text x="900.6" y="197.8" class="label">リンダーホーフ</text>
<circle cx="912.4" cy="100.8" r="4.8" fill="#e85f47" /><text x="921.4000000000001" y="93.8" class="label">シリウス</text>
<circle cx="912.4" cy="132.0" r="4.8" fill="#e85f47" /><text x="921.4000000000001" y="125" class="label">ヴェガ</text>
<circle cx="922.8" cy="433.6" r="4.8" fill="#e85f47" /><text x="931.8" y="426.6" class="label">アルテナ</text>
<circle cx="933.2" cy="548.0" r="4.8" fill="#e85f47" /><text x="942.1999999999999" y="541" class="label">リッテンハイム</text>
<circle cx="943.6" cy="329.6" r="4.8" fill="#e85f47" /><text x="952.6" y="322.6" class="label">ヴェルラ</text>
<circle cx="964.4" cy="184.0" r="4.8" fill="#e85f47" /><text x="973.4" y="177" class="label">ヴィレンシュタイン</text>
<circle cx="995.6" cy="246.4" r="4.8" fill="#e85f47" /><text x="1004.6" y="239.4" class="label">ハインスベルク</text>
<circle cx="995.6" cy="485.6" r="4.8" fill="#e85f47" /><text x="1004.6" y="478.6" class="label">ヴァルデマール</text>
<circle cx="995.6" cy="350.4" r="4.8" fill="#e85f47" /><text x="1004.6" y="343.40000000000003" class="label">ヴァルハラ</text>
<circle cx="995.6" cy="423.2" r="4.8" fill="#e85f47" /><text x="1004.6" y="416.2" class="label">シャンタウ</text>
<circle cx="1006.0" cy="277.6" r="4.8" fill="#e85f47" /><text x="1015" y="270.6" class="label">ニヴルヘイム</text>
<circle cx="1006.0" cy="537.6" r="4.8" fill="#e85f47" /><text x="1015" y="530.6" class="label">ランメルスベルク</text>
<circle cx="1037.2" cy="173.6" r="4.8" fill="#e85f47" /><text x="1046.2" y="166.6" class="label">カストロプ</text>
<circle cx="1047.6" cy="402.4" r="4.8" fill="#e85f47" /><text x="1056.6" y="395.4" class="label">アスガルド</text>
<circle cx="1058.0" cy="246.4" r="4.8" fill="#e85f47" /><text x="1067" y="239.4" class="label">ヴァナヘイム</text>
<circle cx="1058.0" cy="485.6" r="4.8" fill="#e85f47" /><text x="1067" y="478.6" class="label">ヴィッテルスバッハ</text>
<circle cx="1078.8" cy="340.0" r="4.8" fill="#e85f47" /><text x="1087.8" y="333" class="label">ルイトポルディング</text>
<circle cx="1099.6" cy="454.4" r="4.8" fill="#e85f47" /><text x="1108.6" y="447.4" class="label">ヴィンスティンゲン</text>
<circle cx="1110.0" cy="402.4" r="4.8" fill="#e85f47" /><text x="1119" y="395.4" class="label">ウォームスガウ</text>
<circle cx="392.4" cy="163.2" r="4.8" fill="#52a8ff" /><text x="401.4" y="156.2" class="label">アンウレガルラ</text>
<circle cx="246.8" cy="527.2" r="4.8" fill="#52a8ff" /><text x="255.8" y="520.2" class="label">ケープホーン</text>
<circle cx="309.2" cy="485.6" r="4.8" fill="#52a8ff" /><text x="318.20000000000005" y="478.6" class="label">コブラヴェルデ</text>
<circle cx="870.8" cy="277.6" r="4.8" fill="#e85f47" /><text x="879.8000000000001" y="270.6" class="label">ニーベルング</text>
<circle cx="454.8" cy="464.8" r="4.8" fill="#52a8ff" /><text x="463.8" y="457.8" class="label">モンサルヴァール</text>
</svg>
